<svg width="50" height="50" viewBox="0 0 50 50" fill="none" xmlns="http://www.w3.org/2000/svg">
<mask id="mask0_54_7" style="mask-type:alpha" maskUnits="userSpaceOnUse" x="0" y="0" width="50" height="50">
<rect width="50" height="50" fill="#D9D9D9"/>
</mask>
<g mask="url(#mask0_54_7)">
<path d="M21.4063 25C20.434 25 19.6354 24.6354 19.0104 23.9062C18.3854 23.1771 18.1597 22.3264 18.3333 21.3542L18.9583 17.6042C19.2361 16.1111 19.9392 14.8872 21.0677 13.9323C22.1962 12.9774 23.5069 12.5 25 12.5C26.5278 12.5 27.8559 12.9774 28.9844 13.9323C30.1128 14.8872 30.816 16.1111 31.0937 17.6042L31.7187 21.3542C31.8924 22.3264 31.6667 23.1771 31.0417 23.9062C30.4167 24.6354 29.6181 25 28.6458 25H21.4063ZM22.6562 20.8333H27.3958L26.9792 18.2812C26.9097 17.7951 26.684 17.4045 26.3021 17.1094C25.9201 16.8142 25.4861 16.6667 25 16.6667C24.5139 16.6667 24.0885 16.8142 23.724 17.1094C23.3594 17.4045 23.1424 17.7951 23.0729 18.2812L22.6562 20.8333ZM6.45833 27.0312C5.65972 27.066 4.97396 26.9097 4.40104 26.5625C3.82812 26.2153 3.45486 25.6771 3.28125 24.9479C3.21181 24.6354 3.19444 24.3229 3.22917 24.0104C3.26389 23.6979 3.35069 23.4028 3.48958 23.125C3.48958 23.1597 3.47222 23.0903 3.4375 22.9167C3.36806 22.8472 3.19444 22.4306 2.91667 21.6667C2.84722 21.25 2.89931 20.8507 3.07292 20.4687C3.24653 20.0868 3.47222 19.7569 3.75 19.4792L3.85417 19.375C3.92361 18.7153 4.19271 18.1597 4.66146 17.7083C5.13021 17.2569 5.71181 17.0312 6.40625 17.0312C6.51042 17.0312 6.84028 17.1007 7.39583 17.2396L7.55208 17.1875C7.72569 17.0139 7.95139 16.8837 8.22917 16.7969C8.50694 16.7101 8.80208 16.6667 9.11458 16.6667C9.49653 16.6667 9.83507 16.7274 10.1302 16.849C10.4253 16.9705 10.6597 17.1528 10.8333 17.3958C10.8681 17.3958 10.8941 17.4045 10.9115 17.4219C10.9288 17.4392 10.9549 17.4479 10.9896 17.4479C11.4757 17.4826 11.901 17.6302 12.2656 17.8906C12.6302 18.151 12.8993 18.5069 13.0729 18.9583C13.1424 19.2014 13.1684 19.4358 13.151 19.6615C13.1337 19.8872 13.0903 20.1042 13.0208 20.3125C13.0208 20.3472 13.0382 20.4167 13.0729 20.5208C13.316 20.7639 13.5069 21.033 13.6458 21.3281C13.7847 21.6233 13.8542 21.9271 13.8542 22.2396C13.8542 22.3785 13.75 22.7431 13.5417 23.3333C13.5069 23.4028 13.5069 23.4722 13.5417 23.5417L13.6458 24.375C13.6458 25.1042 13.342 25.7292 12.7344 26.25C12.1267 26.7708 11.3889 27.0312 10.5208 27.0312H6.45833ZM41.6667 27.0833C40.5208 27.0833 39.5399 26.6753 38.724 25.8594C37.908 25.0434 37.5 24.0625 37.5 22.9167C37.5 22.5 37.5608 22.1094 37.6823 21.7448C37.8038 21.3802 37.9688 21.0243 38.1771 20.6771L36.7187 19.375C36.3715 19.0972 36.3108 18.75 36.5365 18.3333C36.7622 17.9167 37.0833 17.7083 37.5 17.7083H41.6667C42.8125 17.7083 43.7934 18.1163 44.6094 18.9323C45.4253 19.7483 45.8333 20.7292 45.8333 21.875V22.9167C45.8333 24.0625 45.4253 25.0434 44.6094 25.8594C43.7934 26.6753 42.8125 27.0833 41.6667 27.0833ZM0 37.5V34.2187C0 32.691 0.77257 31.467 2.31771 30.5469C3.86285 29.6267 5.86806 29.1667 8.33333 29.1667C8.78472 29.1667 9.21875 29.1753 9.63542 29.1927C10.0521 29.2101 10.4514 29.2535 10.8333 29.3229C10.3472 30.0174 9.98264 30.7639 9.73958 31.5625C9.49653 32.3611 9.375 33.2118 9.375 34.1146V37.5H0ZM12.5 37.5V34.1146C12.5 31.8576 13.6545 30.0347 15.9635 28.6458C18.2726 27.2569 21.2847 26.5625 25 26.5625C28.75 26.5625 31.7708 27.2569 34.0625 28.6458C36.3542 30.0347 37.5 31.8576 37.5 34.1146V37.5H12.5ZM41.6667 29.1667C44.1667 29.1667 46.1806 29.6267 47.7083 30.5469C49.2361 31.467 50 32.691 50 34.2187V37.5H40.625V34.1146C40.625 33.2118 40.5122 32.3611 40.2865 31.5625C40.0608 30.7639 39.7222 30.0174 39.2708 29.3229C39.6528 29.2535 40.0434 29.2101 40.4427 29.1927C40.842 29.1753 41.25 29.1667 41.6667 29.1667ZM25 30.7292C23.0208 30.7292 21.25 30.9896 19.6875 31.5104C18.125 32.0312 17.2049 32.6389 16.9271 33.3333H33.125C32.8125 32.6389 31.8837 32.0312 30.3385 31.5104C28.7934 30.9896 27.0139 30.7292 25 30.7292Z" fill="#004643"/>
</g>
</svg>
