<svg width="42" height="42" viewBox="0 0 42 42" fill="none" xmlns="http://www.w3.org/2000/svg">
<path d="M15.2083 41.6667L14.375 35C13.9236 34.8264 13.4983 34.6181 13.099 34.375C12.6997 34.1319 12.309 33.8715 11.9271 33.5937L5.72917 36.1979L0 26.3021L5.36458 22.2396C5.32986 21.9965 5.3125 21.7622 5.3125 21.5365V20.1302C5.3125 19.9045 5.32986 19.6701 5.36458 19.4271L0 15.3646L5.72917 5.46875L11.9271 8.07292C12.309 7.79514 12.7083 7.53472 13.125 7.29167C13.5417 7.04861 13.9583 6.84028 14.375 6.66667L15.2083 0H26.6667L27.5 6.66667C27.9514 6.84028 28.3767 7.04861 28.776 7.29167C29.1753 7.53472 29.566 7.79514 29.9479 8.07292L36.1458 5.46875L41.875 15.3646L36.5104 19.4271C36.5451 19.6701 36.5625 19.9045 36.5625 20.1302V21.5365C36.5625 21.7622 36.5278 21.9965 36.4583 22.2396L41.8229 26.3021L36.0938 36.1979L29.9479 33.5937C29.566 33.8715 29.1667 34.1319 28.75 34.375C28.3333 34.6181 27.9167 34.8264 27.5 35L26.6667 41.6667H15.2083ZM21.0417 28.125C23.0556 28.125 24.7743 27.4132 26.1979 25.9896C27.6215 24.566 28.3333 22.8472 28.3333 20.8333C28.3333 18.8194 27.6215 17.1007 26.1979 15.6771C24.7743 14.2535 23.0556 13.5417 21.0417 13.5417C18.9931 13.5417 17.2656 14.2535 15.8594 15.6771C14.4531 17.1007 13.75 18.8194 13.75 20.8333C13.75 22.8472 14.4531 24.566 15.8594 25.9896C17.2656 27.4132 18.9931 28.125 21.0417 28.125ZM21.0417 23.9583C20.1736 23.9583 19.4358 23.6545 18.8281 23.0469C18.2205 22.4392 17.9167 21.7014 17.9167 20.8333C17.9167 19.9653 18.2205 19.2274 18.8281 18.6198C19.4358 18.0122 20.1736 17.7083 21.0417 17.7083C21.9097 17.7083 22.6476 18.0122 23.2552 18.6198C23.8628 19.2274 24.1667 19.9653 24.1667 20.8333C24.1667 21.7014 23.8628 22.4392 23.2552 23.0469C22.6476 23.6545 21.9097 23.9583 21.0417 23.9583ZM18.8542 37.5H22.9688L23.6979 31.9792C24.7743 31.7014 25.7726 31.2934 26.6927 30.7552C27.6128 30.217 28.4549 29.566 29.2188 28.8021L34.375 30.9375L36.4062 27.3958L31.9271 24.0104C32.1007 23.5243 32.2222 23.0122 32.2917 22.474C32.3611 21.9358 32.3958 21.3889 32.3958 20.8333C32.3958 20.2778 32.3611 19.7309 32.2917 19.1927C32.2222 18.6545 32.1007 18.1424 31.9271 17.6562L36.4062 14.2708L34.375 10.7292L29.2188 12.9167C28.4549 12.1181 27.6128 11.4497 26.6927 10.9115C25.7726 10.3733 24.7743 9.96528 23.6979 9.6875L23.0208 4.16667H18.9062L18.1771 9.6875C17.1007 9.96528 16.1024 10.3733 15.1823 10.9115C14.2622 11.4497 13.4201 12.1007 12.6562 12.8646L7.5 10.7292L5.46875 14.2708L9.94792 17.6042C9.7743 18.125 9.65278 18.6458 9.58333 19.1667C9.51389 19.6875 9.47917 20.2431 9.47917 20.8333C9.47917 21.3889 9.51389 21.9271 9.58333 22.4479C9.65278 22.9688 9.7743 23.4896 9.94792 24.0104L5.46875 27.3958L7.5 30.9375L12.6562 28.75C13.4201 29.5486 14.2622 30.217 15.1823 30.7552C16.1024 31.2934 17.1007 31.7014 18.1771 31.9792L18.8542 37.5Z" fill="#004643"/>
</svg>
